<svg xmlns="http://www.w3.org/2000/svg" width="16" height="16"><linearGradient id="a" x2="0" y1="1" y2="15" gradientUnits="userSpaceOnUse"><stop offset="0" stop-color="#ff5f5f"/><stop offset=".5" stop-color="#e1da5b"/><stop offset="1" stop-color="#5fff97"/></linearGradient><path fill="url(#a)" d="m8.245 1 .102.003A.707.707 0 0 1 9 1.71V7H6v4h3v3.31a.702.702 0 0 1-1.124.56l-.076-.067-3.8-3.8H2.12c-.62 0-1.12-.446-1.12-1v-4c0-.553.5-1 1.12-1H4l3.8-3.8a.67.67 0 0 1 .445-.202"/><path stroke="url(#a)" stroke-linecap="square" stroke-width="2" d="M8 9h3V4h3"/></svg>
